<?xml version="1.0" encoding="UTF-8" standalone="no"?>
<svg
   version="1.0"
   width="1492.5936pt"
   height="1492.8845pt"
   viewBox="0 0 1492.5936 1492.8845"
   preserveAspectRatio="xMidYMid"
   id="svg1"
   sodipodi:docname="logo.svg"
   inkscape:version="1.4 (86a8ad7, 2024-10-11)"
   xmlns:inkscape="http://www.inkscape.org/namespaces/inkscape"
   xmlns:sodipodi="http://sodipodi.sourceforge.net/DTD/sodipodi-0.dtd"
   xmlns="http://www.w3.org/2000/svg"
   xmlns:svg="http://www.w3.org/2000/svg">
  <defs
     id="defs1" />
  <sodipodi:namedview
     id="namedview1"
     pagecolor="#ffffff"
     bordercolor="#000000"
     borderopacity="0.25"
     inkscape:showpageshadow="2"
     inkscape:pageopacity="0.0"
     inkscape:pagecheckerboard="0"
     inkscape:deskcolor="#d1d1d1"
     inkscape:document-units="pt"
     inkscape:zoom="0.18274437"
     inkscape:cx="971.30214"
     inkscape:cy="2000.0616"
     inkscape:window-width="1920"
     inkscape:window-height="1057"
     inkscape:window-x="-8"
     inkscape:window-y="-8"
     inkscape:window-maximized="1"
     inkscape:current-layer="g1" />
  <g
     transform="matrix(0.1,0,0,-0.1,-514.90632,3255.326)"
     fill="#000000"
     stroke="none"
     id="g1">
    <path
       d="m 12420,32549 c -753,-19 -1493,-149 -2200,-387 -1178,-397 -2264,-1106 -3124,-2042 -502,-546 -982,-1267 -1266,-1905 -332,-742 -509,-1357 -621,-2150 -109,-781 -67,-1810 107,-2570 108,-472 194,-751 368,-1188 330,-830 834,-1630 1432,-2272 551,-591 1128,-1052 1794,-1433 362,-207 898,-452 1245,-567 117,-39 376,-118 490,-149 216,-59 244,-65 415,-102 514,-110 1084,-166 1620,-159 862,12 1523,125 2386,410 325,107 891,364 1225,555 574,329 1082,714 1543,1169 339,335 512,531 746,846 864,1162 1354,2458 1477,3910 17,197 18,451 18,4123 v 3914 l -3700,1 c -2035,1 -3815,-1 -3955,-4 z m 720,-1673 c 644,-71 1108,-183 1640,-396 316,-127 730,-339 827,-424 95,-85 143,-222 123,-353 -24,-148 62,-55 -1333,-1451 -1207,-1208 -1274,-1273 -1302,-1268 -16,2 -73,15 -125,27 -78,17 -137,22 -326,26 -207,5 -243,3 -345,-16 -161,-31 -281,-65 -406,-115 -268,-108 -452,-228 -654,-427 -271,-269 -430,-548 -524,-919 -45,-178 -57,-273 -57,-460 -1,-190 10,-295 44,-437 12,-51 20,-94 17,-95 -3,-2 -576,-573 -1274,-1270 -1012,-1009 -1280,-1271 -1321,-1292 -65,-32 -171,-50 -242,-42 -31,4 -84,21 -119,38 -104,51 -147,102 -248,293 -403,764 -620,1476 -696,2290 -18,183 -18,794 0,975 81,851 282,1533 666,2268 127,241 389,643 566,866 114,146 358,413 505,557 300,291 624,542 1034,801 600,379 1470,693 2185,788 216,29 202,27 365,40 80,6 165,12 190,14 115,9 675,-3 810,-18 z m 4270,-2681 c 51,-14 107,-49 160,-99 41,-39 203,-328 308,-551 275,-583 463,-1288 524,-1965 16,-184 16,-762 0,-975 -23,-299 -97,-724 -173,-1004 -158,-575 -369,-1063 -681,-1576 -505,-829 -1298,-1578 -2168,-2047 -1106,-596 -2359,-819 -3595,-642 -674,97 -1363,323 -1935,637 -225,123 -277,165 -325,262 -50,101 -51,253 -3,354 17,35 328,352 1300,1326 l 1279,1281 110,-22 c 244,-50 475,-54 724,-14 766,123 1394,709 1578,1470 37,154 50,273 51,470 0,176 -9,264 -44,415 l -19,80 1277,1277 c 1144,1145 1283,1280 1335,1303 98,45 189,51 297,20 z"
       id="path1" />
  </g>
</svg>
